# xmcd CD database file
#
# Track frame offsets:
#	150
#	15365
#	29262
#	39460
#	51502
#	63985
#	74880
#	91967
#	105172
#	120842
#	135935
#	144015
#	154572
#	167810
#	179885
#	192782
#	207115
#	222480
#	233907
#	250482
#	266192
#	279685
#
# Disc length: 3949 seconds
#
# Revision: 0
# Processed by: cddbd v1.5.1PL2 Copyright (c) Steve Scherf et al.
# Submitted via: CDex 1.51
#
DISCID=3d0f6b16
DTITLE=Various Artist - 昭和キッズTVシングルス Vol.11 (1975) [Disc 1]
DYEAR=2003
DGENRE=Anime
TTITLE0=進め! ゴレンジャー
TTITLE1=秘密戦隊ゴレンジャー
TTITLE2=おそば屋ケンちゃん
TTITLE3=きょうだいっていいな
TTITLE4=サザエさんのうた
TTITLE5=あかるいサザエさん
TTITLE6=ビューナスAの歌
TTITLE7=ジュンの歌
TTITLE8=少年徳川家康
TTITLE9=いつか春が...
TTITLE10=冒険ロックバット
TTITLE11=鉄のプリンス・ブレイザー
TTITLE12=ラ・セーヌの星
TTITLE13=私はシモーヌ
TTITLE14=1.2の3のごあいさつ
TTITLE15=あした天気になあれ
TTITLE16=チュンバラ・ブギ
TTITLE17=ビンポンパンだよ!ピン
TTITLE18=ロボコン音頭
TTITLE19=走れ!! ロボコン運動会
TTITLE20=イルカ音頭
TTITLE21=イルカのソナタ
EXTD=YEAR: 2003
EXTT0=
EXTT1=
EXTT2=
EXTT3=
EXTT4=
EXTT5=
EXTT6=
EXTT7=
EXTT8=
EXTT9=
EXTT10=
EXTT11=
EXTT12=
EXTT13=
EXTT14=
EXTT15=
EXTT16=
EXTT17=
EXTT18=
EXTT19=
EXTT20=
EXTT21=
PLAYORDER=
